<svg width="760" height="460" viewBox="0 0 760 460" fill="none" xmlns="http://www.w3.org/2000/svg" role="img" aria-label="Faceless bride and groom standing together">
  <defs>
    <linearGradient id="groomSherwani" x1="0" y1="0" x2="0" y2="1">
      <stop offset="0%" stop-color="#FDFEFF"/>
      <stop offset="100%" stop-color="#DDE8F7"/>
    </linearGradient>
    <linearGradient id="groomShawl" x1="0" y1="0" x2="1" y2="1">
      <stop offset="0%" stop-color="#AFC7E4"/>
      <stop offset="100%" stop-color="#8EAFD1"/>
    </linearGradient>
    <linearGradient id="brideSkirt" x1="0" y1="0" x2="0" y2="1">
      <stop offset="0%" stop-color="#D7C6EA"/>
      <stop offset="100%" stop-color="#AB8EC9"/>
    </linearGradient>
    <linearGradient id="brideDupatta" x1="0" y1="0" x2="1" y2="1">
      <stop offset="0%" stop-color="#EDE3FB"/>
      <stop offset="100%" stop-color="#BFD5EE"/>
    </linearGradient>
    <linearGradient id="accent" x1="0" y1="0" x2="1" y2="1">
      <stop offset="0%" stop-color="#BEABD7"/>
      <stop offset="100%" stop-color="#95B6D6"/>
    </linearGradient>
  </defs>

  <ellipse cx="380" cy="406" rx="166" ry="24" fill="#C8D0E3" opacity="0.55"/>

  <g opacity="0.9">
    <circle cx="250" cy="132" r="9" fill="#D8C6EB"/>
    <circle cx="265" cy="120" r="6" fill="#AEC8E6"/>
    <circle cx="238" cy="118" r="6" fill="#E9EDF7"/>
    <circle cx="515" cy="270" r="9" fill="#D8C6EB"/>
    <circle cx="529" cy="258" r="6" fill="#AEC8E6"/>
    <circle cx="502" cy="255" r="6" fill="#E9EDF7"/>
  </g>

  <g transform="translate(250 70)">
    <ellipse cx="66" cy="320" rx="56" ry="11" fill="#C7CEE0" opacity="0.5"/>

    <circle cx="70" cy="74" r="22" fill="#EFDCC9"/>
    <path d="M44 73C44 42 57 22 70 22C83 22 96 42 96 73V81H44V73Z" fill="#FCFEFF"/>
    <path d="M42 56H99L91 43H50L42 56Z" fill="#B6CCE8"/>
    <path d="M58 48H83" stroke="#9EB8DA" stroke-width="4" stroke-linecap="round"/>

    <path d="M26 322V142C26 109 45 90 70 90C95 90 114 109 114 142V322H26Z" fill="url(#groomSherwani)"/>
    <rect x="66" y="112" width="9" height="174" rx="4.5" fill="#AD96CB"/>
    <circle cx="70.5" cy="146" r="3" fill="#AD96CB"/>
    <circle cx="70.5" cy="164" r="3" fill="#AD96CB"/>
    <circle cx="70.5" cy="182" r="3" fill="#AD96CB"/>

    <path d="M18 162C30 139 46 123 66 118V322H18V162Z" fill="url(#groomShawl)"/>
    <path d="M116 157C105 139 90 126 75 121V322H116V157Z" fill="#CBB8E3" opacity="0.92"/>

    <rect x="10" y="182" width="16" height="112" rx="8" fill="#EBF1FC"/>
    <rect x="114" y="182" width="16" height="112" rx="8" fill="#EBF1FC"/>

    <path d="M110 172C135 166 155 170 174 188" stroke="#A1BCDC" stroke-width="7" stroke-linecap="round"/>
    <path d="M102 183C121 181 139 188 150 198" stroke="#BCA8D5" stroke-width="5" stroke-linecap="round"/>
  </g>

  <g transform="translate(340 88)">
    <ellipse cx="110" cy="302" rx="82" ry="13" fill="#C7CEE0" opacity="0.5"/>

    <path d="M30 304C40 209 75 160 110 160C146 160 180 209 190 304H30Z" fill="url(#brideSkirt)"/>
    <path d="M58 303C65 246 84 213 110 213C136 213 155 246 162 303H58Z" fill="#917AAD" opacity="0.42"/>

    <circle cx="110" cy="100" r="19" fill="#EFDCC9"/>
    <rect x="89" y="114" width="42" height="44" rx="18" fill="#C0ABD8"/>

    <path d="M64 108C64 70 81 48 110 48C139 48 156 70 156 108V137H64V108Z" fill="url(#brideDupatta)"/>
    <path d="M44 145C48 95 72 66 110 61C149 66 173 95 178 145L156 150C151 117 137 98 110 96C83 98 68 116 64 150L44 145Z" fill="#EEF3FC" opacity="0.95"/>

    <path d="M54 149L74 304" stroke="#EDF2FB" stroke-width="7" stroke-linecap="round"/>
    <path d="M168 149L148 304" stroke="#EDF2FB" stroke-width="7" stroke-linecap="round"/>

    <path d="M45 188C25 181 14 185 0 198" stroke="#A1BCDC" stroke-width="7" stroke-linecap="round"/>

    <circle cx="94" cy="228" r="2.3" fill="#DFE9F8"/>
    <circle cx="112" cy="248" r="2.3" fill="#E5D9F4"/>
    <circle cx="132" cy="270" r="2.3" fill="#DFE9F8"/>
    <circle cx="154" cy="240" r="2.3" fill="#E5D9F4"/>
    <circle cx="78" cy="258" r="2.3" fill="#E5D9F4"/>

    <path d="M99 108C95 114 96 125 102 131C107 136 115 136 120 131C125 126 126 116 122 109" stroke="#A892C8" stroke-width="3" stroke-linecap="round"/>
  </g>

  <path d="M356 262L363 283" stroke="url(#accent)" stroke-width="6" stroke-linecap="round"/>
</svg>
