<svg width="760" height="430" viewBox="0 0 760 430" fill="none" xmlns="http://www.w3.org/2000/svg" role="img" aria-label="Faceless bride and groom illustration">
  <defs>
    <linearGradient id="g1" x1="0" y1="0" x2="0" y2="1">
      <stop offset="0%" stop-color="#F6E1BB"/>
      <stop offset="100%" stop-color="#D3AF72"/>
    </linearGradient>
    <linearGradient id="g2" x1="0" y1="0" x2="1" y2="1">
      <stop offset="0%" stop-color="#B88945"/>
      <stop offset="100%" stop-color="#8C6229"/>
    </linearGradient>
    <linearGradient id="g3" x1="0" y1="0" x2="1" y2="1">
      <stop offset="0%" stop-color="#EFE3CF"/>
      <stop offset="100%" stop-color="#D9C5A5"/>
    </linearGradient>
  </defs>

  <ellipse cx="380" cy="370" rx="285" ry="38" fill="#E3CFAD" opacity="0.55"/>

  <g opacity="0.92">
    <circle cx="152" cy="128" r="4" fill="#BE9A63"/>
    <circle cx="620" cy="98" r="4" fill="#BE9A63"/>
    <circle cx="582" cy="160" r="3" fill="#BE9A63"/>
    <circle cx="208" cy="86" r="3" fill="#BE9A63"/>
  </g>

  <g transform="translate(180 58)">
    <ellipse cx="120" cy="300" rx="98" ry="18" fill="#CEB089" opacity="0.52"/>

    <path d="M18 300C26 225 62 172 120 172C178 172 214 225 222 300H18Z" fill="url(#g1)"/>
    <path d="M54 298C60 242 82 209 120 209C158 209 180 242 186 298H54Z" fill="#B48542" opacity="0.56"/>

    <rect x="92" y="132" width="56" height="52" rx="20" fill="#C39651"/>
    <circle cx="120" cy="114" r="23" fill="#E8CFA7"/>

    <path d="M76 124C76 83 96 58 121 58C146 58 167 83 167 124V146H76V124Z" fill="url(#g2)"/>
    <path d="M46 166C52 113 78 82 121 78C166 82 190 112 197 168L167 176C162 139 145 120 121 118C97 120 80 140 76 177L46 166Z" fill="#F0DEC0"/>

    <path d="M64 164L83 300" stroke="#F0DEC0" stroke-width="7" stroke-linecap="round" opacity="0.9"/>
    <path d="M176 164L157 300" stroke="#F0DEC0" stroke-width="7" stroke-linecap="round" opacity="0.9"/>
  </g>

  <g transform="translate(376 60)">
    <ellipse cx="120" cy="300" rx="96" ry="18" fill="#CEB089" opacity="0.52"/>

    <path d="M62 302V168C62 140 85 118 113 118H127C155 118 178 140 178 168V302H62Z" fill="url(#g3)"/>
    <rect x="114" y="145" width="12" height="145" rx="6" fill="#B48A4A" opacity="0.9"/>
    <circle cx="120" cy="176" r="4" fill="#B48A4A"/>
    <circle cx="120" cy="196" r="4" fill="#B48A4A"/>
    <circle cx="120" cy="216" r="4" fill="#B48A4A"/>

    <circle cx="120" cy="100" r="22" fill="#E7CCA1"/>
    <path d="M88 100C88 73 102 58 120 58C138 58 152 73 152 100V106H88V100Z" fill="#8D652A"/>
    <path d="M89 88H151L143 73H97L89 88Z" fill="#BA945A"/>

    <rect x="47" y="178" width="20" height="108" rx="10" fill="#E5D2B5"/>
    <rect x="173" y="178" width="20" height="108" rx="10" fill="#E5D2B5"/>
  </g>
</svg>
