<svg width="280" height="280" viewBox="0 0 280 280" fill="none" xmlns="http://www.w3.org/2000/svg">
  <defs>
    <linearGradient id="petalLilac" x1="0" y1="0" x2="1" y2="1">
      <stop offset="0%" stop-color="#E8DDF5"/>
      <stop offset="100%" stop-color="#BFA8D9"/>
    </linearGradient>
    <linearGradient id="petalBlue" x1="0" y1="0" x2="1" y2="1">
      <stop offset="0%" stop-color="#E6F0FA"/>
      <stop offset="100%" stop-color="#AFC8E4"/>
    </linearGradient>
    <linearGradient id="leaf" x1="0" y1="0" x2="1" y2="1">
      <stop offset="0%" stop-color="#C9DCEF"/>
      <stop offset="100%" stop-color="#95B5D5"/>
    </linearGradient>
  </defs>

  <g opacity="0.95">
    <path d="M74 214C103 182 114 158 108 121C86 131 68 149 58 171C50 189 52 203 74 214Z" fill="url(#leaf)"/>
    <path d="M110 228C142 198 156 171 152 132C126 144 105 166 93 191C83 210 85 221 110 228Z" fill="url(#leaf)"/>

    <g transform="translate(144 90)">
      <ellipse cx="0" cy="-28" rx="18" ry="30" fill="url(#petalLilac)"/>
      <ellipse cx="24" cy="-12" rx="16" ry="26" transform="rotate(42 24 -12)" fill="url(#petalBlue)"/>
      <ellipse cx="26" cy="18" rx="16" ry="26" transform="rotate(82 26 18)" fill="url(#petalLilac)"/>
      <ellipse cx="0" cy="30" rx="17" ry="27" fill="url(#petalBlue)"/>
      <ellipse cx="-24" cy="18" rx="16" ry="26" transform="rotate(-76 -24 18)" fill="url(#petalLilac)"/>
      <ellipse cx="-24" cy="-12" rx="16" ry="26" transform="rotate(-40 -24 -12)" fill="url(#petalBlue)"/>
      <circle cx="0" cy="4" r="10" fill="#F8F8FD"/>
      <circle cx="0" cy="4" r="5" fill="#B59CCF"/>
    </g>

    <g transform="translate(194 142) scale(0.88)">
      <ellipse cx="0" cy="-24" rx="15" ry="24" fill="url(#petalBlue)"/>
      <ellipse cx="20" cy="-8" rx="13" ry="21" transform="rotate(42 20 -8)" fill="url(#petalLilac)"/>
      <ellipse cx="21" cy="16" rx="13" ry="21" transform="rotate(82 21 16)" fill="url(#petalBlue)"/>
      <ellipse cx="0" cy="24" rx="14" ry="22" fill="url(#petalLilac)"/>
      <ellipse cx="-20" cy="16" rx="13" ry="21" transform="rotate(-78 -20 16)" fill="url(#petalBlue)"/>
      <ellipse cx="-20" cy="-8" rx="13" ry="21" transform="rotate(-42 -20 -8)" fill="url(#petalLilac)"/>
      <circle cx="0" cy="3" r="8" fill="#F7F7FC"/>
      <circle cx="0" cy="3" r="4" fill="#AFC6E4"/>
    </g>

    <g transform="translate(104 150) scale(0.74)">
      <ellipse cx="0" cy="-22" rx="13" ry="22" fill="url(#petalLilac)"/>
      <ellipse cx="18" cy="-7" rx="12" ry="18" transform="rotate(44 18 -7)" fill="url(#petalBlue)"/>
      <ellipse cx="19" cy="14" rx="12" ry="18" transform="rotate(80 19 14)" fill="url(#petalLilac)"/>
      <ellipse cx="0" cy="21" rx="12" ry="19" fill="url(#petalBlue)"/>
      <ellipse cx="-18" cy="14" rx="12" ry="18" transform="rotate(-80 -18 14)" fill="url(#petalLilac)"/>
      <ellipse cx="-18" cy="-7" rx="12" ry="18" transform="rotate(-44 -18 -7)" fill="url(#petalBlue)"/>
      <circle cx="0" cy="2" r="7" fill="#F9F9FD"/>
      <circle cx="0" cy="2" r="3" fill="#C2ACD8"/>
    </g>
  </g>
</svg>
